<?xml version="1.0" encoding="UTF-8" standalone="no"?>
<!DOCTYPE svg PUBLIC "-//W3C//DTD SVG 1.1//EN"
 "http://www.w3.org/Graphics/SVG/1.1/DTD/svg11.dtd">
<!-- Generated by graphviz version 14.1.3 (20260303.0454)
 -->
<!-- Pages: 1 -->
<svg width="505pt" height="646pt"
 viewBox="0.00 0.00 505.00 646.00" xmlns="http://www.w3.org/2000/svg" xmlns:xlink="http://www.w3.org/1999/xlink">
<g id="graph0" class="graph" transform="scale(1 1) rotate(0) translate(4 641.5)">
<polygon fill="white" stroke="none" points="-4,4 -4,-641.5 500.75,-641.5 500.75,4 -4,4"/>
<g id="clust3" class="cluster">
<title>cluster_associated</title>
</g>
<!-- TransportNetwork -->
<g id="node1" class="node">
<title>TransportNetwork</title>
<g id="a_node1"><a xlink:href="../TransportNetwork" xlink:title="&lt;TABLE&gt;">
<polygon fill="lightgray" stroke="none" points="101.75,-611.38 101.75,-627.62 198.25,-627.62 198.25,-611.38 101.75,-611.38"/>
<text xml:space="preserve" text-anchor="start" x="102.75" y="-615.38" font-family="Arial" font-size="12.00">TransportNetwork</text>
<polygon fill="none" stroke="black" points="100.75,-610.38 100.75,-628.62 199.25,-628.62 199.25,-610.38 100.75,-610.38"/>
</a>
</g>
</g>
<!-- FootpathNetwork -->
<g id="node2" class="node">
<title>FootpathNetwork</title>
<g id="a_node2"><a xlink:href="../FootpathNetwork" xlink:title="&lt;TABLE&gt;">
<polygon fill="lightgray" stroke="none" points="103.25,-538.38 103.25,-554.62 196.75,-554.62 196.75,-538.38 103.25,-538.38"/>
<text xml:space="preserve" text-anchor="start" x="104.25" y="-542.38" font-family="Arial" font-size="12.00">FootpathNetwork</text>
<polygon fill="none" stroke="black" points="102.25,-537.38 102.25,-555.62 197.75,-555.62 197.75,-537.38 102.25,-537.38"/>
</a>
</g>
</g>
<!-- FootpathNetwork&#45;&gt;TransportNetwork -->
<g id="edge1" class="edge">
<title>FootpathNetwork&#45;&gt;TransportNetwork</title>
<path fill="none" stroke="black" d="M150,-564.21C150,-571.97 150,-581.42 150,-590.24"/>
<polygon fill="none" stroke="black" points="146.5,-590.16 150,-600.16 153.5,-590.16 146.5,-590.16"/>
</g>
<!-- Invis -->
<!-- FootpathNetwork&#45;&gt;Invis -->
<!-- FootpathLink -->
<g id="node5" class="node">
<title>FootpathLink</title>
<g id="a_node5"><a xlink:href="../FootpathLink" xlink:title="&lt;TABLE&gt;">
<polygon fill="lightgray" stroke="none" points="35.12,-171.88 35.12,-188.12 106.88,-188.12 106.88,-171.88 35.12,-171.88"/>
<text xml:space="preserve" text-anchor="start" x="36.12" y="-175.88" font-family="Arial" font-size="12.00">FootpathLink</text>
<polygon fill="none" stroke="black" points="34.12,-170.88 34.12,-189.12 107.88,-189.12 107.88,-170.88 34.12,-170.88"/>
</a>
</g>
</g>
<!-- FootpathNetwork&#45;&gt;FootpathLink -->
<g id="edge11" class="edge">
<title>FootpathNetwork&#45;&gt;FootpathLink</title>
<path fill="none" stroke="black" stroke-dasharray="5,2" d="M182.06,-528.67C188.47,-523.72 194.35,-517.67 198,-510.5 245.59,-416.9 210.35,-370.21 162,-277 147.35,-248.77 121.92,-222.98 101.66,-205.26"/>
<polygon fill="black" stroke="black" points="104.09,-202.74 94.21,-198.92 99.55,-208.07 104.09,-202.74"/>
<polygon fill="white" stroke="none" points="216.38,-331 216.38,-395.5 324.13,-395.5 324.13,-331 216.38,-331"/>
<text xml:space="preserve" text-anchor="start" x="248.13" y="-381" font-family="Arial" font-size="11.00">redefines</text>
<text xml:space="preserve" text-anchor="start" x="220.38" y="-359.5" font-family="Arial" font-size="11.00">cdm1:hasProperPart</text>
<text xml:space="preserve" text-anchor="start" x="262.01" y="-338" font-family="Arial" font-size="11.00">1..*</text>
</g>
<!-- owl_Thing -->
<g id="node7" class="node">
<title>owl_Thing</title>
<g id="a_node7"><a xlink:href="https://w3id.org/citydata/imported/owl/latest/Thing" xlink:title="&lt;TABLE&gt;">
<polygon fill="lightgray" stroke="none" points="43.75,-25.88 43.75,-42.12 98.25,-42.12 98.25,-25.88 43.75,-25.88"/>
<text xml:space="preserve" text-anchor="start" x="44.75" y="-29.88" font-family="Arial" font-size="12.00">owl:Thing</text>
<polygon fill="none" stroke="black" points="42.75,-24.88 42.75,-43.12 99.25,-43.12 99.25,-24.88 42.75,-24.88"/>
</a>
</g>
</g>
<!-- FootpathNetwork&#45;&gt;owl_Thing -->
<g id="edge12" class="edge">
<title>FootpathNetwork&#45;&gt;owl_Thing</title>
<path fill="none" stroke="black" d="M197.5,-543.64C267.2,-538.09 389,-516.38 389,-432.5 389,-432.5 389,-432.5 389,-106 389,-49.54 195.66,-37.96 110.49,-35.6"/>
<polygon fill="black" stroke="black" points="110.82,-32.11 100.73,-35.36 110.64,-39.1 110.82,-32.11"/>
<polygon fill="white" stroke="none" points="389,-216 389,-259 496.75,-259 496.75,-216 389,-216"/>
<text xml:space="preserve" text-anchor="start" x="393" y="-244.5" font-family="Arial" font-size="11.00">cdm1:hasProperPart</text>
<text xml:space="preserve" text-anchor="start" x="434.62" y="-223" font-family="Arial" font-size="11.00">1..*</text>
</g>
<!-- nc63d9aeea9c24785938b813312b70530b14 -->
<g id="node8" class="node">
<title>nc63d9aeea9c24785938b813312b70530b14</title>
<polygon fill="lightyellow" stroke="none" points="124.25,-422.38 124.25,-440.62 183.75,-440.62 183.75,-422.38 124.25,-422.38"/>
<text xml:space="preserve" text-anchor="start" x="126.25" y="-427.38" font-family="Arial" font-size="12.00">«unionOf»</text>
<polygon fill="none" stroke="black" points="124.25,-422.38 124.25,-440.62 183.75,-440.62 183.75,-422.38 124.25,-422.38"/>
</g>
<!-- FootpathNetwork&#45;&gt;nc63d9aeea9c24785938b813312b70530b14 -->
<g id="edge10" class="edge">
<title>FootpathNetwork&#45;&gt;nc63d9aeea9c24785938b813312b70530b14</title>
<path fill="none" stroke="black" stroke-dasharray="5,2" d="M108.14,-528.69C100.98,-523.9 94.49,-517.91 90.25,-510.5 80.75,-493.92 79.1,-483.02 90.25,-467.5 98.39,-456.17 107.62,-463.93 120,-457.5 121.24,-456.85 122.49,-456.16 123.73,-455.44"/>
<polygon fill="black" stroke="black" points="125.29,-458.6 131.8,-450.25 121.5,-452.72 125.29,-458.6"/>
<polygon fill="white" stroke="none" points="90.25,-467.5 90.25,-510.5 198,-510.5 198,-467.5 90.25,-467.5"/>
<text xml:space="preserve" text-anchor="start" x="122" y="-496" font-family="Arial" font-size="11.00">redefines</text>
<text xml:space="preserve" text-anchor="start" x="94.25" y="-474.5" font-family="Arial" font-size="11.00">cdm1:hasProperPart</text>
</g>
<!-- Footpath -->
<g id="node4" class="node">
<title>Footpath</title>
<g id="a_node4"><a xlink:href="../Footpath" xlink:title="&lt;TABLE&gt;">
<polygon fill="lightgray" stroke="none" points="46.38,-286.88 46.38,-303.12 95.62,-303.12 95.62,-286.88 46.38,-286.88"/>
<text xml:space="preserve" text-anchor="start" x="47.38" y="-290.88" font-family="Arial" font-size="12.00">Footpath</text>
<polygon fill="none" stroke="black" points="45.38,-285.88 45.38,-304.12 96.62,-304.12 96.62,-285.88 45.38,-285.88"/>
</a>
</g>
</g>
<!-- Invis&#45;&gt;Footpath -->
<!-- Footpath&#45;&gt;FootpathLink -->
<!-- FootpathSection -->
<g id="node6" class="node">
<title>FootpathSection</title>
<g id="a_node6"><a xlink:href="../FootpathSection" xlink:title="&lt;TABLE&gt;">
<polygon fill="lightgray" stroke="none" points="17.12,-98.88 17.12,-115.12 106.88,-115.12 106.88,-98.88 17.12,-98.88"/>
<text xml:space="preserve" text-anchor="start" x="18.12" y="-102.88" font-family="Arial" font-size="12.00">FootpathSection</text>
<polygon fill="none" stroke="black" points="16.12,-97.88 16.12,-116.12 107.88,-116.12 107.88,-97.88 16.12,-97.88"/>
</a>
</g>
</g>
<!-- FootpathLink&#45;&gt;FootpathSection -->
<!-- FootpathSection&#45;&gt;owl_Thing -->
<!-- nc63d9aeea9c24785938b813312b70530b14&#45;&gt;Footpath -->
<g id="edge7" class="edge">
<title>nc63d9aeea9c24785938b813312b70530b14&#45;&gt;Footpath</title>
<path fill="none" stroke="black" stroke-dasharray="1,5" d="M124.36,-415.62C122.88,-414.9 121.43,-414.19 120,-413.5 102.89,-405.25 92.27,-410.96 81.25,-395.5 66.6,-374.95 65.28,-345.68 66.88,-324.2"/>
<polygon fill="black" stroke="black" points="70.34,-324.69 67.88,-314.39 63.38,-323.98 70.34,-324.69"/>
<text xml:space="preserve" text-anchor="middle" x="101.12" y="-359.55" font-family="Arial" font-size="11.00">member</text>
</g>
<!-- nc63d9aeea9c24785938b813312b70530b14&#45;&gt;FootpathLink -->
<g id="edge8" class="edge">
<title>nc63d9aeea9c24785938b813312b70530b14&#45;&gt;FootpathLink</title>
<path fill="none" stroke="black" stroke-dasharray="1,5" d="M149.26,-413.81C141.13,-385.5 123.79,-326.34 107,-277 99.08,-253.73 89.23,-227.62 81.83,-208.52"/>
<polygon fill="black" stroke="black" points="85.13,-207.34 78.24,-199.29 78.61,-209.88 85.13,-207.34"/>
<text xml:space="preserve" text-anchor="middle" x="138.34" y="-291.3" font-family="Arial" font-size="11.00">member</text>
</g>
<!-- nc63d9aeea9c24785938b813312b70530b14&#45;&gt;FootpathSection -->
<g id="edge9" class="edge">
<title>nc63d9aeea9c24785938b813312b70530b14&#45;&gt;FootpathSection</title>
<path fill="none" stroke="black" stroke-dasharray="1,5" d="M183.67,-428.26C224.89,-424.46 296.22,-415.16 312,-395.5 329.95,-373.14 323.72,-357.16 312,-331 269.4,-235.92 164.01,-164.71 104.56,-130.52"/>
<polygon fill="black" stroke="black" points="106.47,-127.58 96.04,-125.71 103.02,-133.68 106.47,-127.58"/>
<text xml:space="preserve" text-anchor="middle" x="284.78" y="-233.8" font-family="Arial" font-size="11.00">member</text>
</g>
</g>
</svg>
