<?xml version="1.0" encoding="UTF-8" standalone="no"?>
<!DOCTYPE svg PUBLIC "-//W3C//DTD SVG 1.1//EN"
 "http://www.w3.org/Graphics/SVG/1.1/DTD/svg11.dtd">
<!-- Generated by graphviz version 14.1.3 (20260303.0454)
 -->
<!-- Pages: 1 -->
<svg width="317pt" height="522pt"
 viewBox="0.00 0.00 317.00 522.00" xmlns="http://www.w3.org/2000/svg" xmlns:xlink="http://www.w3.org/1999/xlink">
<g id="graph0" class="graph" transform="scale(1 1) rotate(0) translate(4 517.5)">
<polygon fill="white" stroke="none" points="-4,4 -4,-517.5 312.96,-517.5 312.96,4 -4,4"/>
<g id="clust3" class="cluster">
<title>cluster_associated</title>
</g>
<!-- TravelledWaySection -->
<g id="node1" class="node">
<title>TravelledWaySection</title>
<g id="a_node1"><a xlink:href="../TravelledWaySection" xlink:title="&lt;TABLE&gt;">
<polygon fill="lightgray" stroke="none" points="60,-487.38 60,-503.62 176,-503.62 176,-487.38 60,-487.38"/>
<text xml:space="preserve" text-anchor="start" x="61" y="-491.38" font-family="Arial" font-size="12.00">TravelledWaySection</text>
<polygon fill="none" stroke="black" points="59,-486.38 59,-504.62 177,-504.62 177,-486.38 59,-486.38"/>
</a>
</g>
</g>
<!-- FootpathSection -->
<g id="node2" class="node">
<title>FootpathSection</title>
<g id="a_node2"><a xlink:href="../FootpathSection" xlink:title="&lt;TABLE&gt;">
<polygon fill="lightgray" stroke="none" points="73.12,-414.38 73.12,-430.62 162.88,-430.62 162.88,-414.38 73.12,-414.38"/>
<text xml:space="preserve" text-anchor="start" x="74.12" y="-418.38" font-family="Arial" font-size="12.00">FootpathSection</text>
<polygon fill="none" stroke="black" points="72.12,-413.38 72.12,-431.62 163.88,-431.62 163.88,-413.38 72.12,-413.38"/>
</a>
</g>
</g>
<!-- FootpathSection&#45;&gt;TravelledWaySection -->
<g id="edge1" class="edge">
<title>FootpathSection&#45;&gt;TravelledWaySection</title>
<path fill="none" stroke="black" d="M118,-440.21C118,-447.97 118,-457.42 118,-466.24"/>
<polygon fill="none" stroke="black" points="114.5,-466.16 118,-476.16 121.5,-466.16 114.5,-466.16"/>
</g>
<!-- Invis -->
<!-- FootpathSection&#45;&gt;Invis -->
<!-- FootpathNetwork -->
<g id="node5" class="node">
<title>FootpathNetwork</title>
<g id="a_node5"><a xlink:href="../FootpathNetwork" xlink:title="&lt;TABLE&gt;">
<polygon fill="lightgray" stroke="none" points="19.25,-98.88 19.25,-115.12 112.75,-115.12 112.75,-98.88 19.25,-98.88"/>
<text xml:space="preserve" text-anchor="start" x="20.25" y="-102.88" font-family="Arial" font-size="12.00">FootpathNetwork</text>
<polygon fill="none" stroke="black" points="18.25,-97.88 18.25,-116.12 113.75,-116.12 113.75,-97.88 18.25,-97.88"/>
</a>
</g>
</g>
<!-- FootpathSection&#45;&gt;FootpathNetwork -->
<g id="edge9" class="edge">
<title>FootpathSection&#45;&gt;FootpathNetwork</title>
<path fill="none" stroke="black" stroke-dasharray="5,2" d="M117.54,-404.66C116.09,-356.36 110.99,-218.04 99,-174.5 95.23,-160.8 88.58,-146.57 82.24,-134.8"/>
<polygon fill="black" stroke="black" points="85.29,-133.09 77.34,-126.09 79.19,-136.52 85.29,-133.09"/>
<polygon fill="white" stroke="none" points="111.12,-228.5 111.12,-271.5 211.37,-271.5 211.37,-228.5 111.12,-228.5"/>
<text xml:space="preserve" text-anchor="start" x="139.12" y="-257" font-family="Arial" font-size="11.00">redefines</text>
<text xml:space="preserve" text-anchor="start" x="115.12" y="-235.5" font-family="Arial" font-size="11.00">cdm1:properPartOf</text>
</g>
<!-- nc63d9aeea9c24785938b813312b70530b20 -->
<g id="node7" class="node">
<title>nc63d9aeea9c24785938b813312b70530b20</title>
<polygon fill="lightyellow" stroke="none" points="211.25,-298.38 211.25,-316.62 270.75,-316.62 270.75,-298.38 211.25,-298.38"/>
<text xml:space="preserve" text-anchor="start" x="213.25" y="-303.38" font-family="Arial" font-size="12.00">«unionOf»</text>
<polygon fill="none" stroke="black" points="211.25,-298.38 211.25,-316.62 270.75,-316.62 270.75,-298.38 211.25,-298.38"/>
</g>
<!-- FootpathSection&#45;&gt;nc63d9aeea9c24785938b813312b70530b20 -->
<g id="edge8" class="edge">
<title>FootpathSection&#45;&gt;nc63d9aeea9c24785938b813312b70530b20</title>
<path fill="none" stroke="black" stroke-dasharray="5,2" d="M136.41,-404.58C157.09,-385.58 190.84,-354.59 214.38,-332.95"/>
<polygon fill="black" stroke="black" points="216.75,-335.53 221.75,-326.19 212.01,-330.38 216.75,-335.53"/>
<polygon fill="white" stroke="none" points="201.21,-343.5 201.21,-386.5 308.96,-386.5 308.96,-343.5 201.21,-343.5"/>
<text xml:space="preserve" text-anchor="start" x="232.96" y="-372" font-family="Arial" font-size="11.00">redefines</text>
<text xml:space="preserve" text-anchor="start" x="205.21" y="-350.5" font-family="Arial" font-size="11.00">cdm1:hasProperPart</text>
</g>
<!-- FootpathLink -->
<g id="node4" class="node">
<title>FootpathLink</title>
<g id="a_node4"><a xlink:href="../FootpathLink" xlink:title="&lt;TABLE&gt;">
<polygon fill="lightgray" stroke="none" points="17.12,-184.38 17.12,-200.62 88.88,-200.62 88.88,-184.38 17.12,-184.38"/>
<text xml:space="preserve" text-anchor="start" x="18.12" y="-188.38" font-family="Arial" font-size="12.00">FootpathLink</text>
<polygon fill="none" stroke="black" points="16.12,-183.38 16.12,-201.62 89.88,-201.62 89.88,-183.38 16.12,-183.38"/>
</a>
</g>
</g>
<!-- Invis&#45;&gt;FootpathLink -->
<!-- FootpathLink&#45;&gt;FootpathNetwork -->
<!-- FootpathSegment -->
<g id="node6" class="node">
<title>FootpathSegment</title>
<g id="a_node6"><a xlink:href="../FootpathSegment" xlink:title="&lt;TABLE&gt;">
<polygon fill="lightgray" stroke="none" points="17.38,-25.88 17.38,-42.12 114.62,-42.12 114.62,-25.88 17.38,-25.88"/>
<text xml:space="preserve" text-anchor="start" x="18.38" y="-29.88" font-family="Arial" font-size="12.00">FootpathSegment</text>
<polygon fill="none" stroke="black" points="16.38,-24.88 16.38,-43.12 115.62,-43.12 115.62,-24.88 16.38,-24.88"/>
</a>
</g>
</g>
<!-- FootpathNetwork&#45;&gt;FootpathSegment -->
<!-- nc63d9aeea9c24785938b813312b70530b20&#45;&gt;FootpathLink -->
<g id="edge6" class="edge">
<title>nc63d9aeea9c24785938b813312b70530b20&#45;&gt;FootpathLink</title>
<path fill="none" stroke="black" stroke-dasharray="1,5" d="M241.05,-289.63C240.14,-271.84 235.85,-244.26 219,-228.5 202.15,-212.75 143.77,-203.17 100.99,-198.1"/>
<polygon fill="black" stroke="black" points="101.5,-194.64 91.17,-196.99 100.71,-201.6 101.5,-194.64"/>
<text xml:space="preserve" text-anchor="middle" x="258.8" y="-246.3" font-family="Arial" font-size="11.00">member</text>
</g>
<!-- nc63d9aeea9c24785938b813312b70530b20&#45;&gt;FootpathSegment -->
<g id="edge7" class="edge">
<title>nc63d9aeea9c24785938b813312b70530b20&#45;&gt;FootpathSegment</title>
<path fill="none" stroke="black" stroke-dasharray="1,5" d="M267.62,-289.63C273.42,-284.56 278.79,-278.47 282,-271.5 290,-254.15 289.8,-245.95 282,-228.5 246.38,-148.77 159.88,-88.26 107.79,-57.52"/>
<polygon fill="black" stroke="black" points="109.58,-54.51 99.17,-52.53 106.07,-60.57 109.58,-54.51"/>
<text xml:space="preserve" text-anchor="middle" x="253.19" y="-146.05" font-family="Arial" font-size="11.00">member</text>
</g>
</g>
</svg>
