<?xml version="1.0" encoding="UTF-8" standalone="no"?>
<!DOCTYPE svg PUBLIC "-//W3C//DTD SVG 1.1//EN"
 "http://www.w3.org/Graphics/SVG/1.1/DTD/svg11.dtd">
<!-- Generated by graphviz version 14.1.3 (20260303.0454)
 -->
<!-- Pages: 1 -->
<svg width="341pt" height="522pt"
 viewBox="0.00 0.00 341.00 522.00" xmlns="http://www.w3.org/2000/svg" xmlns:xlink="http://www.w3.org/1999/xlink">
<g id="graph0" class="graph" transform="scale(1 1) rotate(0) translate(4 517.5)">
<polygon fill="white" stroke="none" points="-4,4 -4,-517.5 336.96,-517.5 336.96,4 -4,4"/>
<g id="clust3" class="cluster">
<title>cluster_associated</title>
</g>
<!-- RoadSection -->
<g id="node1" class="node">
<title>RoadSection</title>
<g id="a_node1"><a xlink:href="../RoadSection" xlink:title="&lt;TABLE&gt;">
<polygon fill="lightgray" stroke="none" points="106.12,-487.38 106.12,-503.62 177.88,-503.62 177.88,-487.38 106.12,-487.38"/>
<text xml:space="preserve" text-anchor="start" x="107.12" y="-491.38" font-family="Arial" font-size="12.00">RoadSection</text>
<polygon fill="none" stroke="black" points="105.12,-486.38 105.12,-504.62 178.88,-504.62 178.88,-486.38 105.12,-486.38"/>
</a>
</g>
</g>
<!-- MicromobilityPathSection -->
<g id="node2" class="node">
<title>MicromobilityPathSection</title>
<g id="a_node2"><a xlink:href="../MicromobilityPathSection" xlink:title="&lt;TABLE&gt;">
<polygon fill="lightgray" stroke="none" points="73.12,-414.38 73.12,-430.62 210.88,-430.62 210.88,-414.38 73.12,-414.38"/>
<text xml:space="preserve" text-anchor="start" x="74.12" y="-418.38" font-family="Arial" font-size="12.00">MicromobilityPathSection</text>
<polygon fill="none" stroke="black" points="72.12,-413.38 72.12,-431.62 211.88,-431.62 211.88,-413.38 72.12,-413.38"/>
</a>
</g>
</g>
<!-- MicromobilityPathSection&#45;&gt;RoadSection -->
<g id="edge1" class="edge">
<title>MicromobilityPathSection&#45;&gt;RoadSection</title>
<path fill="none" stroke="black" d="M142,-440.21C142,-447.97 142,-457.42 142,-466.24"/>
<polygon fill="none" stroke="black" points="138.5,-466.16 142,-476.16 145.5,-466.16 138.5,-466.16"/>
</g>
<!-- Invis -->
<!-- MicromobilityPathSection&#45;&gt;Invis -->
<!-- MicromobilityNetwork -->
<g id="node5" class="node">
<title>MicromobilityNetwork</title>
<g id="a_node5"><a xlink:href="../MicromobilityNetwork" xlink:title="&lt;TABLE&gt;">
<polygon fill="lightgray" stroke="none" points="31.62,-98.88 31.62,-115.12 148.38,-115.12 148.38,-98.88 31.62,-98.88"/>
<text xml:space="preserve" text-anchor="start" x="32.62" y="-102.88" font-family="Arial" font-size="12.00">MicromobilityNetwork</text>
<polygon fill="none" stroke="black" points="30.62,-97.88 30.62,-116.12 149.38,-116.12 149.38,-97.88 30.62,-97.88"/>
</a>
</g>
</g>
<!-- MicromobilityPathSection&#45;&gt;MicromobilityNetwork -->
<g id="edge6" class="edge">
<title>MicromobilityPathSection&#45;&gt;MicromobilityNetwork</title>
<path fill="none" stroke="black" stroke-dasharray="5,2" d="M141.54,-404.66C140.09,-356.36 134.99,-218.04 123,-174.5 119.23,-160.8 112.58,-146.57 106.24,-134.8"/>
<polygon fill="black" stroke="black" points="109.29,-133.09 101.34,-126.09 103.19,-136.52 109.29,-133.09"/>
<polygon fill="white" stroke="none" points="135.12,-228.5 135.12,-271.5 235.37,-271.5 235.37,-228.5 135.12,-228.5"/>
<text xml:space="preserve" text-anchor="start" x="163.12" y="-257" font-family="Arial" font-size="11.00">redefines</text>
<text xml:space="preserve" text-anchor="start" x="139.12" y="-235.5" font-family="Arial" font-size="11.00">cdm1:properPartOf</text>
</g>
<!-- n357fc98d4b3b4002a740b57da5623563b21 -->
<g id="node7" class="node">
<title>n357fc98d4b3b4002a740b57da5623563b21</title>
<polygon fill="lightyellow" stroke="none" points="235.25,-298.38 235.25,-316.62 294.75,-316.62 294.75,-298.38 235.25,-298.38"/>
<text xml:space="preserve" text-anchor="start" x="237.25" y="-303.38" font-family="Arial" font-size="12.00">«unionOf»</text>
<polygon fill="none" stroke="black" points="235.25,-298.38 235.25,-316.62 294.75,-316.62 294.75,-298.38 235.25,-298.38"/>
</g>
<!-- MicromobilityPathSection&#45;&gt;n357fc98d4b3b4002a740b57da5623563b21 -->
<g id="edge9" class="edge">
<title>MicromobilityPathSection&#45;&gt;n357fc98d4b3b4002a740b57da5623563b21</title>
<path fill="none" stroke="black" stroke-dasharray="5,2" d="M160.41,-404.58C181.09,-385.58 214.84,-354.59 238.38,-332.95"/>
<polygon fill="black" stroke="black" points="240.75,-335.53 245.75,-326.19 236.01,-330.38 240.75,-335.53"/>
<polygon fill="white" stroke="none" points="225.21,-343.5 225.21,-386.5 332.96,-386.5 332.96,-343.5 225.21,-343.5"/>
<text xml:space="preserve" text-anchor="start" x="256.96" y="-372" font-family="Arial" font-size="11.00">redefines</text>
<text xml:space="preserve" text-anchor="start" x="229.21" y="-350.5" font-family="Arial" font-size="11.00">cdm1:hasProperPart</text>
</g>
<!-- MicromobilityLink -->
<g id="node4" class="node">
<title>MicromobilityLink</title>
<g id="a_node4"><a xlink:href="../MicromobilityLink" xlink:title="&lt;TABLE&gt;">
<polygon fill="lightgray" stroke="none" points="17.5,-184.38 17.5,-200.62 112.5,-200.62 112.5,-184.38 17.5,-184.38"/>
<text xml:space="preserve" text-anchor="start" x="18.5" y="-188.38" font-family="Arial" font-size="12.00">MicromobilityLink</text>
<polygon fill="none" stroke="black" points="16.5,-183.38 16.5,-201.62 113.5,-201.62 113.5,-183.38 16.5,-183.38"/>
</a>
</g>
</g>
<!-- Invis&#45;&gt;MicromobilityLink -->
<!-- MicromobilityLink&#45;&gt;MicromobilityNetwork -->
<!-- MicromobilityPathSegment -->
<g id="node6" class="node">
<title>MicromobilityPathSegment</title>
<g id="a_node6"><a xlink:href="../MicromobilityPathSegment" xlink:title="&lt;TABLE&gt;">
<polygon fill="lightgray" stroke="none" points="17.38,-25.88 17.38,-42.12 162.62,-42.12 162.62,-25.88 17.38,-25.88"/>
<text xml:space="preserve" text-anchor="start" x="18.38" y="-29.88" font-family="Arial" font-size="12.00">MicromobilityPathSegment</text>
<polygon fill="none" stroke="black" points="16.38,-24.88 16.38,-43.12 163.62,-43.12 163.62,-24.88 16.38,-24.88"/>
</a>
</g>
</g>
<!-- MicromobilityNetwork&#45;&gt;MicromobilityPathSegment -->
<!-- n357fc98d4b3b4002a740b57da5623563b21&#45;&gt;MicromobilityLink -->
<g id="edge7" class="edge">
<title>n357fc98d4b3b4002a740b57da5623563b21&#45;&gt;MicromobilityLink</title>
<path fill="none" stroke="black" stroke-dasharray="1,5" d="M265.09,-289.58C264.22,-271.76 259.96,-244.14 243,-228.5 225.91,-212.74 169.32,-203.51 124.48,-198.53"/>
<polygon fill="black" stroke="black" points="124.89,-195.05 114.58,-197.48 124.16,-202.02 124.89,-195.05"/>
<text xml:space="preserve" text-anchor="middle" x="282.86" y="-246.3" font-family="Arial" font-size="11.00">member</text>
</g>
<!-- n357fc98d4b3b4002a740b57da5623563b21&#45;&gt;MicromobilityPathSegment -->
<g id="edge8" class="edge">
<title>n357fc98d4b3b4002a740b57da5623563b21&#45;&gt;MicromobilityPathSegment</title>
<path fill="none" stroke="black" stroke-dasharray="1,5" d="M291.62,-289.63C297.42,-284.56 302.79,-278.47 306,-271.5 314,-254.15 313.57,-246.05 306,-228.5 271.42,-148.38 184.65,-88.05 132.21,-57.44"/>
<polygon fill="black" stroke="black" points="134.25,-54.58 123.84,-52.65 130.78,-60.65 134.25,-54.58"/>
<text xml:space="preserve" text-anchor="middle" x="277.79" y="-146.05" font-family="Arial" font-size="11.00">member</text>
</g>
</g>
</svg>
