<?xml version="1.0" encoding="UTF-8" standalone="no"?>
<!DOCTYPE svg PUBLIC "-//W3C//DTD SVG 1.1//EN"
 "http://www.w3.org/Graphics/SVG/1.1/DTD/svg11.dtd">
<!-- Generated by graphviz version 14.1.3 (20260303.0454)
 -->
<!-- Pages: 1 -->
<svg width="169pt" height="132pt"
 viewBox="0.00 0.00 169.00 132.00" xmlns="http://www.w3.org/2000/svg" xmlns:xlink="http://www.w3.org/1999/xlink">
<g id="graph0" class="graph" transform="scale(1 1) rotate(0) translate(4 128)">
<polygon fill="white" stroke="none" points="-4,4 -4,-128 165.25,-128 165.25,4 -4,4"/>
<g id="clust3" class="cluster">
<title>cluster_associated</title>
</g>
<!-- cdm1_CdmThing -->
<g id="node1" class="node">
<title>cdm1_CdmThing</title>
<g id="a_node1"><a xlink:href="https://w3id.org/citydata/part1/v1/CdmThing" xlink:title="&lt;TABLE&gt;">
<polygon fill="lightgray" stroke="none" points="1,-97.88 1,-114.12 91.5,-114.12 91.5,-97.88 1,-97.88"/>
<text xml:space="preserve" text-anchor="start" x="2" y="-101.88" font-family="Arial" font-size="12.00">cdm1:CdmThing</text>
<polygon fill="none" stroke="black" points="0,-96.88 0,-115.12 92.5,-115.12 92.5,-96.88 0,-96.88"/>
</a>
</g>
</g>
<!-- ITSThing -->
<g id="node2" class="node">
<title>ITSThing</title>
<g id="a_node2"><a xlink:href="../ITSThing" xlink:title="&lt;TABLE&gt;">
<polygon fill="lightgray" stroke="none" points="20.5,-25.88 20.5,-42.12 72,-42.12 72,-25.88 20.5,-25.88"/>
<text xml:space="preserve" text-anchor="start" x="21.5" y="-29.88" font-family="Arial" font-size="12.00">ITSThing</text>
<polygon fill="none" stroke="black" points="19.5,-24.88 19.5,-43.12 73,-43.12 73,-24.88 19.5,-24.88"/>
</a>
</g>
</g>
<!-- ITSThing&#45;&gt;cdm1_CdmThing -->
<g id="edge1" class="edge">
<title>ITSThing&#45;&gt;cdm1_CdmThing</title>
<path fill="none" stroke="black" d="M46.25,-51.79C46.25,-59.25 46.25,-68.24 46.25,-76.69"/>
<polygon fill="none" stroke="black" points="42.75,-76.54 46.25,-86.54 49.75,-76.54 42.75,-76.54"/>
</g>
<!-- Invis -->
</g>
</svg>
