<?xml version="1.0" encoding="UTF-8" standalone="no"?>
<!DOCTYPE svg PUBLIC "-//W3C//DTD SVG 1.1//EN"
 "http://www.w3.org/Graphics/SVG/1.1/DTD/svg11.dtd">
<!-- Generated by graphviz version 14.1.3 (20260303.0454)
 -->
<!-- Pages: 1 -->
<svg width="369pt" height="481pt"
 viewBox="0.00 0.00 369.00 481.00" xmlns="http://www.w3.org/2000/svg" xmlns:xlink="http://www.w3.org/1999/xlink">
<g id="graph0" class="graph" transform="scale(1 1) rotate(0) translate(4 477)">
<polygon fill="white" stroke="none" points="-4,4 -4,-477 365.25,-477 365.25,4 -4,4"/>
<g id="clust3" class="cluster">
<title>cluster_associated</title>
</g>
<!-- PublicTransportElement -->
<g id="node1" class="node">
<title>PublicTransportElement</title>
<g id="a_node1"><a xlink:href="../PublicTransportElement" xlink:title="&lt;TABLE&gt;">
<polygon fill="lightgray" stroke="none" points="78.88,-446.88 78.88,-463.12 209.12,-463.12 209.12,-446.88 78.88,-446.88"/>
<text xml:space="preserve" text-anchor="start" x="79.88" y="-450.88" font-family="Arial" font-size="12.00">PublicTransportElement</text>
<polygon fill="none" stroke="black" points="77.88,-445.88 77.88,-464.12 210.12,-464.12 210.12,-445.88 77.88,-445.88"/>
</a>
</g>
</g>
<!-- PublicTransportRoute -->
<g id="node2" class="node">
<title>PublicTransportRoute</title>
<g id="a_node2"><a xlink:href="../PublicTransportRoute" xlink:title="&lt;TABLE&gt;">
<polygon fill="lightgray" stroke="none" points="84.88,-373.88 84.88,-390.12 203.12,-390.12 203.12,-373.88 84.88,-373.88"/>
<text xml:space="preserve" text-anchor="start" x="85.88" y="-377.88" font-family="Arial" font-size="12.00">PublicTransportRoute</text>
<polygon fill="none" stroke="black" points="83.88,-372.88 83.88,-391.12 204.12,-391.12 204.12,-372.88 83.88,-372.88"/>
</a>
</g>
</g>
<!-- PublicTransportRoute&#45;&gt;PublicTransportElement -->
<g id="edge1" class="edge">
<title>PublicTransportRoute&#45;&gt;PublicTransportElement</title>
<path fill="none" stroke="black" d="M144,-399.71C144,-407.47 144,-416.92 144,-425.74"/>
<polygon fill="none" stroke="black" points="140.5,-425.66 144,-435.66 147.5,-425.66 140.5,-425.66"/>
</g>
<!-- Invis -->
<!-- PublicTransportRoute&#45;&gt;Invis -->
<!-- cdm2_Code -->
<g id="node4" class="node">
<title>cdm2_Code</title>
<g id="a_node4"><a xlink:href="https://w3id.org/citydata/part2/v1/Code" xlink:title="&lt;TABLE&gt;">
<polygon fill="lightgray" stroke="none" points="48.25,-175.38 48.25,-191.62 111.75,-191.62 111.75,-175.38 48.25,-175.38"/>
<text xml:space="preserve" text-anchor="start" x="49.25" y="-179.38" font-family="Arial" font-size="12.00">cdm2:Code</text>
<polygon fill="none" stroke="black" points="47.25,-174.38 47.25,-192.62 112.75,-192.62 112.75,-174.38 47.25,-174.38"/>
</a>
</g>
</g>
<!-- PublicTransportRoute&#45;&gt;cdm2_Code -->
<g id="edge7" class="edge">
<title>PublicTransportRoute&#45;&gt;cdm2_Code</title>
<path fill="none" stroke="black" d="M135.21,-364.36C130.44,-354.9 124.68,-342.73 120.5,-331.5 105.42,-290.94 93.08,-242.24 86.14,-212.33"/>
<polygon fill="black" stroke="black" points="89.55,-211.56 83.92,-202.59 82.72,-213.11 89.55,-211.56"/>
<polygon fill="white" stroke="none" points="120.5,-284 120.5,-327 169,-327 169,-284 120.5,-284"/>
<text xml:space="preserve" text-anchor="start" x="124.5" y="-312.5" font-family="Arial" font-size="11.00">direction</text>
<text xml:space="preserve" text-anchor="start" x="136.5" y="-291" font-family="Arial" font-size="11.00">1..*</text>
</g>
<!-- PointOnRoute -->
<g id="node5" class="node">
<title>PointOnRoute</title>
<g id="a_node5"><a xlink:href="../PointOnRoute" xlink:title="&lt;TABLE&gt;">
<polygon fill="lightgray" stroke="none" points="41.12,-98.88 41.12,-115.12 118.88,-115.12 118.88,-98.88 41.12,-98.88"/>
<text xml:space="preserve" text-anchor="start" x="42.12" y="-102.88" font-family="Arial" font-size="12.00">PointOnRoute</text>
<polygon fill="none" stroke="black" points="40.12,-97.88 40.12,-116.12 119.88,-116.12 119.88,-97.88 40.12,-97.88"/>
</a>
</g>
</g>
<!-- PublicTransportRoute&#45;&gt;PointOnRoute -->
<g id="edge8" class="edge">
<title>PublicTransportRoute&#45;&gt;PointOnRoute</title>
<path fill="none" stroke="black" d="M154.88,-364.35C160.28,-355.09 166.23,-343.11 169,-331.5 173.89,-310.96 172.86,-304.76 169,-284 158.38,-226.87 150.59,-212.59 122,-162 116.42,-152.13 109.16,-142.11 102.25,-133.43"/>
<polygon fill="black" stroke="black" points="105.01,-131.26 95.95,-125.77 99.6,-135.71 105.01,-131.26"/>
<polygon fill="white" stroke="none" points="165.4,-223 165.4,-266 228.15,-266 228.15,-223 165.4,-223"/>
<text xml:space="preserve" text-anchor="start" x="169.4" y="-251.5" font-family="Arial" font-size="11.00">routePoints</text>
<text xml:space="preserve" text-anchor="start" x="188.52" y="-230" font-family="Arial" font-size="11.00">2..*</text>
</g>
<!-- PublicTransportLine -->
<g id="node6" class="node">
<title>PublicTransportLine</title>
<g id="a_node6"><a xlink:href="../PublicTransportLine" xlink:title="&lt;TABLE&gt;">
<polygon fill="lightgray" stroke="none" points="17.38,-25.88 17.38,-42.12 126.62,-42.12 126.62,-25.88 17.38,-25.88"/>
<text xml:space="preserve" text-anchor="start" x="18.38" y="-29.88" font-family="Arial" font-size="12.00">PublicTransportLine</text>
<polygon fill="none" stroke="black" points="16.38,-24.88 16.38,-43.12 127.62,-43.12 127.62,-24.88 16.38,-24.88"/>
</a>
</g>
</g>
<!-- PublicTransportRoute&#45;&gt;PublicTransportLine -->
<g id="edge6" class="edge">
<title>PublicTransportRoute&#45;&gt;PublicTransportLine</title>
<path fill="none" stroke="black" d="M203.87,-366.35C232.66,-355.36 261,-336.84 261,-306.5 261,-306.5 261,-306.5 261,-106 261,-79.07 192.9,-58.89 138.46,-47.06"/>
<polygon fill="black" stroke="black" points="139.42,-43.68 128.91,-45.04 137.97,-50.53 139.42,-43.68"/>
<polygon fill="white" stroke="none" points="261,-162 261,-205 361.25,-205 361.25,-162 261,-162"/>
<text xml:space="preserve" text-anchor="start" x="265" y="-190.5" font-family="Arial" font-size="11.00">cdm1:properPartOf</text>
<text xml:space="preserve" text-anchor="start" x="302.88" y="-169" font-family="Arial" font-size="11.00">1..*</text>
</g>
<!-- Invis&#45;&gt;cdm2_Code -->
<!-- cdm2_Code&#45;&gt;PointOnRoute -->
<!-- PointOnRoute&#45;&gt;PublicTransportLine -->
</g>
</svg>
