<?xml version="1.0" encoding="UTF-8" standalone="no"?>
<!DOCTYPE svg PUBLIC "-//W3C//DTD SVG 1.1//EN"
 "http://www.w3.org/Graphics/SVG/1.1/DTD/svg11.dtd">
<!-- Generated by graphviz version 14.1.3 (20260303.0454)
 -->
<!-- Pages: 1 -->
<svg width="279pt" height="543pt"
 viewBox="0.00 0.00 279.00 543.00" xmlns="http://www.w3.org/2000/svg" xmlns:xlink="http://www.w3.org/1999/xlink">
<g id="graph0" class="graph" transform="scale(1 1) rotate(0) translate(4 539)">
<polygon fill="white" stroke="none" points="-4,4 -4,-539 274.75,-539 274.75,4 -4,4"/>
<g id="clust3" class="cluster">
<title>cluster_associated</title>
</g>
<!-- TransportNetwork -->
<g id="node1" class="node">
<title>TransportNetwork</title>
<g id="a_node1"><a xlink:href="../TransportNetwork" xlink:title="&lt;TABLE&gt;">
<polygon fill="lightgray" stroke="none" points="91.5,-508.88 91.5,-525.12 188,-525.12 188,-508.88 91.5,-508.88"/>
<text xml:space="preserve" text-anchor="start" x="92.5" y="-512.88" font-family="Arial" font-size="12.00">TransportNetwork</text>
<polygon fill="none" stroke="black" points="90.5,-507.88 90.5,-526.12 189,-526.12 189,-507.88 90.5,-507.88"/>
</a>
</g>
</g>
<!-- RoadNetwork -->
<g id="node2" class="node">
<title>RoadNetwork</title>
<g id="a_node2"><a xlink:href="../RoadNetwork" xlink:title="&lt;TABLE&gt;">
<polygon fill="lightgray" stroke="none" points="70.88,-444 70.88,-460.25 208.62,-460.25 208.62,-444 70.88,-444"/>
<text xml:space="preserve" text-anchor="start" x="103" y="-448" font-family="Arial" font-size="12.00">RoadNetwork</text>
<text xml:space="preserve" text-anchor="start" x="71.88" y="-431.75" font-family="Arial" font-size="12.00">cdm1:hasProperPart [1..*]</text>
<polygon fill="none" stroke="black" points="69.88,-426.75 69.88,-461.25 209.62,-461.25 209.62,-426.75 69.88,-426.75"/>
</a>
</g>
</g>
<!-- RoadNetwork&#45;&gt;TransportNetwork -->
<g id="edge1" class="edge">
<title>RoadNetwork&#45;&gt;TransportNetwork</title>
<path fill="none" stroke="black" d="M139.75,-461.71C139.75,-469.47 139.75,-478.92 139.75,-487.74"/>
<polygon fill="none" stroke="black" points="136.25,-487.66 139.75,-497.66 143.25,-487.66 136.25,-487.66"/>
</g>
<!-- Invis -->
<!-- RoadNetwork&#45;&gt;Invis -->
<!-- RoadLink -->
<g id="node5" class="node">
<title>RoadLink</title>
<g id="a_node5"><a xlink:href="../RoadLink" xlink:title="&lt;TABLE&gt;">
<polygon fill="lightgray" stroke="none" points="181.88,-98.88 181.88,-115.12 235.62,-115.12 235.62,-98.88 181.88,-98.88"/>
<text xml:space="preserve" text-anchor="start" x="182.88" y="-102.88" font-family="Arial" font-size="12.00">RoadLink</text>
<polygon fill="none" stroke="black" points="180.88,-97.88 180.88,-116.12 236.62,-116.12 236.62,-97.88 180.88,-97.88"/>
</a>
</g>
</g>
<!-- RoadNetwork&#45;&gt;RoadLink -->
<g id="edge10" class="edge">
<title>RoadNetwork&#45;&gt;RoadLink</title>
<path fill="none" stroke="black" stroke-dasharray="5,2" d="M136.43,-426.18C129.84,-389.48 117.39,-299.78 137,-228.5 146.82,-192.81 170.29,-157 187.73,-133.81"/>
<polygon fill="black" stroke="black" points="190.28,-136.23 193.61,-126.18 184.74,-131.96 190.28,-136.23"/>
<polygon fill="white" stroke="none" points="137,-228.5 137,-293 244.75,-293 244.75,-228.5 137,-228.5"/>
<text xml:space="preserve" text-anchor="start" x="168.75" y="-278.5" font-family="Arial" font-size="11.00">redefines</text>
<text xml:space="preserve" text-anchor="start" x="141" y="-257" font-family="Arial" font-size="11.00">cdm1:hasProperPart</text>
<text xml:space="preserve" text-anchor="start" x="182.62" y="-235.5" font-family="Arial" font-size="11.00">1..*</text>
</g>
<!-- nf9bf95ca936a48ed91a85f16e3ee047ab25 -->
<g id="node7" class="node">
<title>nf9bf95ca936a48ed91a85f16e3ee047ab25</title>
<polygon fill="lightyellow" stroke="none" points="0,-319.88 0,-338.12 59.5,-338.12 59.5,-319.88 0,-319.88"/>
<text xml:space="preserve" text-anchor="start" x="2" y="-324.88" font-family="Arial" font-size="12.00">«unionOf»</text>
<polygon fill="none" stroke="black" points="0,-319.88 0,-338.12 59.5,-338.12 59.5,-319.88 0,-319.88"/>
</g>
<!-- RoadNetwork&#45;&gt;nf9bf95ca936a48ed91a85f16e3ee047ab25 -->
<g id="edge9" class="edge">
<title>RoadNetwork&#45;&gt;nf9bf95ca936a48ed91a85f16e3ee047ab25</title>
<path fill="none" stroke="black" stroke-dasharray="5,2" d="M70.13,-438.53C50.15,-433.62 30.44,-424.51 18,-408 7.22,-393.69 10.53,-373.64 16.34,-357.45"/>
<polygon fill="black" stroke="black" points="19.5,-358.96 20.04,-348.38 13.02,-356.31 19.5,-358.96"/>
<polygon fill="white" stroke="none" points="18,-365 18,-408 125.75,-408 125.75,-365 18,-365"/>
<text xml:space="preserve" text-anchor="start" x="49.75" y="-393.5" font-family="Arial" font-size="11.00">redefines</text>
<text xml:space="preserve" text-anchor="start" x="22" y="-372" font-family="Arial" font-size="11.00">cdm1:hasProperPart</text>
</g>
<!-- Road -->
<g id="node4" class="node">
<title>Road</title>
<g id="a_node4"><a xlink:href="../Road" xlink:title="&lt;TABLE&gt;">
<polygon fill="lightgray" stroke="none" points="193.12,-184.38 193.12,-200.62 224.38,-200.62 224.38,-184.38 193.12,-184.38"/>
<text xml:space="preserve" text-anchor="start" x="194.12" y="-188.38" font-family="Arial" font-size="12.00">Road</text>
<polygon fill="none" stroke="black" points="192.12,-183.38 192.12,-201.62 225.38,-201.62 225.38,-183.38 192.12,-183.38"/>
</a>
</g>
</g>
<!-- Invis&#45;&gt;Road -->
<!-- Road&#45;&gt;RoadLink -->
<!-- RoadSection -->
<g id="node6" class="node">
<title>RoadSection</title>
<g id="a_node6"><a xlink:href="../RoadSection" xlink:title="&lt;TABLE&gt;">
<polygon fill="lightgray" stroke="none" points="181.88,-25.88 181.88,-42.12 253.62,-42.12 253.62,-25.88 181.88,-25.88"/>
<text xml:space="preserve" text-anchor="start" x="182.88" y="-29.88" font-family="Arial" font-size="12.00">RoadSection</text>
<polygon fill="none" stroke="black" points="180.88,-24.88 180.88,-43.12 254.62,-43.12 254.62,-24.88 180.88,-24.88"/>
</a>
</g>
</g>
<!-- RoadLink&#45;&gt;RoadSection -->
<!-- nf9bf95ca936a48ed91a85f16e3ee047ab25&#45;&gt;Road -->
<g id="edge6" class="edge">
<title>nf9bf95ca936a48ed91a85f16e3ee047ab25&#45;&gt;Road</title>
<path fill="none" stroke="black" stroke-dasharray="1,5" d="M43.2,-311.16C47.25,-305.59 51.49,-299.22 54.75,-293 68.91,-266.02 55.56,-249.12 78,-228.5 103.09,-205.44 141.71,-197.28 170.48,-194.53"/>
<polygon fill="black" stroke="black" points="170.54,-198.04 180.24,-193.79 170.01,-191.06 170.54,-198.04"/>
<text xml:space="preserve" text-anchor="middle" x="97.88" y="-257.05" font-family="Arial" font-size="11.00">member</text>
</g>
<!-- nf9bf95ca936a48ed91a85f16e3ee047ab25&#45;&gt;RoadLink -->
<g id="edge7" class="edge">
<title>nf9bf95ca936a48ed91a85f16e3ee047ab25&#45;&gt;RoadLink</title>
<path fill="none" stroke="black" stroke-dasharray="1,5" d="M32.1,-311.41C37.14,-281.15 51.44,-216.26 86,-174.5 107.93,-148 143.28,-130.44 170.43,-120.06"/>
<polygon fill="black" stroke="black" points="171.5,-123.39 179.7,-116.68 169.1,-116.81 171.5,-123.39"/>
<text xml:space="preserve" text-anchor="middle" x="105.88" y="-188.8" font-family="Arial" font-size="11.00">member</text>
</g>
<!-- nf9bf95ca936a48ed91a85f16e3ee047ab25&#45;&gt;RoadSection -->
<g id="edge8" class="edge">
<title>nf9bf95ca936a48ed91a85f16e3ee047ab25&#45;&gt;RoadSection</title>
<path fill="none" stroke="black" stroke-dasharray="1,5" d="M27.89,-311.18C24.93,-276.08 23.01,-194.04 62,-143 90.9,-105.16 136.9,-75.59 171.43,-57.03"/>
<polygon fill="black" stroke="black" points="172.72,-60.3 179.95,-52.56 169.47,-54.11 172.72,-60.3"/>
<text xml:space="preserve" text-anchor="middle" x="81.88" y="-146.05" font-family="Arial" font-size="11.00">member</text>
</g>
</g>
</svg>
